<?xml version="1.0" encoding="utf-8"?>
<!-- Generator: Adobe Illustrator 28.2.0, SVG Export Plug-In . SVG Version: 6.00 Build 0)  -->
<svg version="1.1" id="LumiSky" xmlns="http://www.w3.org/2000/svg" xmlns:xlink="http://www.w3.org/1999/xlink" x="0px" y="0px"
	 viewBox="0 0 500 500" style="enable-background:new 0 0 500 500;" xml:space="preserve" fill="#f6f6f6">
<path id="Underline" d="M488.3,382v6.7c0,0.8-0.2,1.5-0.6,2.2l-51.1,80.9l-44.8-2.3l-25-1.3l-265.2-13.6l-51.8-2.6l-29.2-1.5
	c-1.1-0.1-2-1-2-2.1v-4.7c0-1.2,1-2.1,2.1-2.1h415.8l48.7-60.5C486.3,379.7,488.3,380.4,488.3,382z"/>
<path id="L" d="M42.7,303.4c0,9.7,1.1,28.5,4.7,41.1c5.4,19.2,14.6,34.4,27.6,45.5c16.5,14.2,39,21.3,67.3,21.3h59.8l0-47.8h-59.9
	c-21.1,0-32.5-10.3-41.7-25.2c-8-13-8.2-27.1-8.2-46V187H42.7"/>
<path id="S" d="M395.9,295.6c-11-14.2-26-21.3-45-21.3h-70.4c-5.6,0-9.9-1.9-13-5.7c-3-3.8-4.5-8.3-4.5-13.7
	c0-5.5,1.6-10.3,4.7-14.4c3.1-4.1,7.4-6.1,12.8-6.1H400V187H272.2c-19,0-34.1,7.1-45.4,21.3c-10,12.7-15.1,28.3-15.1,46.6
	c0,18.6,5,34.2,15.1,46.8c11.2,14.1,26.3,21.1,45.4,21.1h70.6c5.4,0,9.5,1.9,12.3,5.8c2.8,3.9,4.2,8.5,4.2,14
	c0,5.5-1.5,10.4-4.4,14.6c-2.9,4.2-7,6.3-12.1,6.3h-120v47.8h128.1c19,0,34-7.1,45-21.3c9.9-12.9,14.9-28.6,14.9-47.2
	C410.8,324.1,405.8,308.3,395.9,295.6z"/>
<path id="Dome" d="M459.6,354c-1.2,3.6-6.7,2.2-6-1.5c2.2-12.6,3.3-25.5,3.3-38.7c0-78.3-39.5-147.4-99.6-188.5l2.5,44.5
	c0,0.8-1,1.1-1.4,0.4l-28.4-60.5l-66.7,3.8c-0.8,0-1.1-1-0.4-1.4l34-16c-21.6-6.8-44.5-10.4-68.3-10.4
	c-73.4,0-138.8,34.7-180.5,88.6c-2.2,2.9-6.7-0.1-5-3.3c38.7-71.1,114-119.3,200.6-119.3c27.6,0,54.1,4.9,78.6,13.9l-2.8-48.6
	c0-0.8,1-1.1,1.4-0.4L349.4,77l66.7-3.8c0.8,0,1.1,1,0.4,1.4l-40.6,19.1C434,135,472,203,472,279.8C472,305.8,467.6,330.8,459.6,354
	z"/>
</svg>
